<?xml version="1.0" encoding="utf-8"?>
<svg xmlns="http://www.w3.org/2000/svg" xmlns:xlink="http://www.w3.org/1999/xlink" style="margin: auto; background: rgba(241, 242, 243, 0); display: block; shape-rendering: auto;" width="335px" height="335px" viewBox="0 0 100 100" preserveAspectRatio="xMidYMid">
<g transform="rotate(0 50 50)">
  <rect x="45.5" y="20.5" rx="4.5" ry="7.3100000000000005" width="9" height="17" fill="#4fb4ff">
    <animate attributeName="opacity" values="1;0" keyTimes="0;1" dur="0.7194244604316546s" begin="-0.6540222367560496s" repeatCount="indefinite"></animate>
  </rect>
</g><g transform="rotate(32.72727272727273 50 50)">
  <rect x="45.5" y="20.5" rx="4.5" ry="7.3100000000000005" width="9" height="17" fill="#4fb4ff">
    <animate attributeName="opacity" values="1;0" keyTimes="0;1" dur="0.7194244604316546s" begin="-0.5886200130804446s" repeatCount="indefinite"></animate>
  </rect>
</g><g transform="rotate(65.45454545454545 50 50)">
  <rect x="45.5" y="20.5" rx="4.5" ry="7.3100000000000005" width="9" height="17" fill="#4fb4ff">
    <animate attributeName="opacity" values="1;0" keyTimes="0;1" dur="0.7194244604316546s" begin="-0.5232177894048398s" repeatCount="indefinite"></animate>
  </rect>
</g><g transform="rotate(98.18181818181819 50 50)">
  <rect x="45.5" y="20.5" rx="4.5" ry="7.3100000000000005" width="9" height="17" fill="#4fb4ff">
    <animate attributeName="opacity" values="1;0" keyTimes="0;1" dur="0.7194244604316546s" begin="-0.45781556572923476s" repeatCount="indefinite"></animate>
  </rect>
</g><g transform="rotate(130.9090909090909 50 50)">
  <rect x="45.5" y="20.5" rx="4.5" ry="7.3100000000000005" width="9" height="17" fill="#4fb4ff">
    <animate attributeName="opacity" values="1;0" keyTimes="0;1" dur="0.7194244604316546s" begin="-0.3924133420536298s" repeatCount="indefinite"></animate>
  </rect>
</g><g transform="rotate(163.63636363636363 50 50)">
  <rect x="45.5" y="20.5" rx="4.5" ry="7.3100000000000005" width="9" height="17" fill="#4fb4ff">
    <animate attributeName="opacity" values="1;0" keyTimes="0;1" dur="0.7194244604316546s" begin="-0.3270111183780248s" repeatCount="indefinite"></animate>
  </rect>
</g><g transform="rotate(196.36363636363637 50 50)">
  <rect x="45.5" y="20.5" rx="4.5" ry="7.3100000000000005" width="9" height="17" fill="#4fb4ff">
    <animate attributeName="opacity" values="1;0" keyTimes="0;1" dur="0.7194244604316546s" begin="-0.2616088947024199s" repeatCount="indefinite"></animate>
  </rect>
</g><g transform="rotate(229.0909090909091 50 50)">
  <rect x="45.5" y="20.5" rx="4.5" ry="7.3100000000000005" width="9" height="17" fill="#4fb4ff">
    <animate attributeName="opacity" values="1;0" keyTimes="0;1" dur="0.7194244604316546s" begin="-0.1962066710268149s" repeatCount="indefinite"></animate>
  </rect>
</g><g transform="rotate(261.8181818181818 50 50)">
  <rect x="45.5" y="20.5" rx="4.5" ry="7.3100000000000005" width="9" height="17" fill="#4fb4ff">
    <animate attributeName="opacity" values="1;0" keyTimes="0;1" dur="0.7194244604316546s" begin="-0.13080444735120994s" repeatCount="indefinite"></animate>
  </rect>
</g><g transform="rotate(294.54545454545456 50 50)">
  <rect x="45.5" y="20.5" rx="4.5" ry="7.3100000000000005" width="9" height="17" fill="#4fb4ff">
    <animate attributeName="opacity" values="1;0" keyTimes="0;1" dur="0.7194244604316546s" begin="-0.06540222367560497s" repeatCount="indefinite"></animate>
  </rect>
</g><g transform="rotate(327.27272727272725 50 50)">
  <rect x="45.5" y="20.5" rx="4.5" ry="7.3100000000000005" width="9" height="17" fill="#4fb4ff">
    <animate attributeName="opacity" values="1;0" keyTimes="0;1" dur="0.7194244604316546s" begin="0s" repeatCount="indefinite"></animate>
  </rect>
</g>
<!-- [ldio] generated by https://loading.io/ --></svg>